# Blender 5.1.1
# www.blender.org
mtllib couverture.mtl
o couverture
v -2.351793 11.635269 -4.514995
v 6.120339 8.430594 -4.514995
v 6.120339 8.430594 4.768817
v -2.351793 11.635269 4.768817
v -2.241231 11.927558 -4.514995
v -2.241231 11.927558 4.768817
v 6.230900 8.722882 -4.514995
v 6.230900 8.722882 4.768817
v -6.682144 8.240978 -4.514995
v -2.241231 11.927558 -4.514995
v -2.241231 11.927558 4.768817
v -6.682144 8.240978 4.768817
v -6.881748 8.481424 -4.514995
v -6.881748 8.481424 4.768817
v -2.440835 12.168004 -4.514995
v -2.440835 12.168004 4.768817
v -2.351793 11.635269 4.768828
v 4.393728 9.083703 4.768828
v 4.393728 9.083703 4.455828
v -2.351793 11.635269 4.455828
v -2.241231 11.927558 4.768828
v -2.241231 11.927558 4.455828
v -5.666985 9.083703 4.768828
v -5.666985 9.083703 4.455828
v -2.241231 11.927558 -4.514995
v -5.666985 9.083703 -4.514995
v -5.666985 9.083703 -4.214995
v -2.241231 11.927558 -4.214995
v -2.351793 11.635269 -4.514995
v -2.351793 11.635269 -4.214995
v 4.393728 9.083703 -4.514995
v 4.393728 9.083703 -4.214995
vn -0.3538 -0.9353 -0.0000
vn -0.9353 0.3538 -0.0000
vn 0.3538 0.9353 -0.0000
vn 0.9353 -0.3538 -0.0000
vn -0.0000 -0.0000 -1.0000
vn -0.0000 -0.0000 1.0000
vn 0.6387 -0.7694 -0.0000
vn -0.7694 -0.6387 -0.0000
vn -0.6387 0.7694 -0.0000
vn 0.7694 0.6387 -0.0000
vn -0.0000 -1.0000 -0.0000
vt 0.000000 0.000000
vt 0.905798 0.000000
vt 0.000000 0.928381
vt 0.905798 0.928381
vt 0.031250 0.000000
vt 0.031250 0.928381
vt -0.418078 -0.174848
vt 0.429135 0.145619
vt -0.429135 -0.145619
vt 0.418078 0.174848
vt 0.174848 0.418078
vt 0.145619 0.429135
vt -0.145619 -0.429135
vt -0.174848 -0.418078
vt 0.577170 0.000000
vt 0.577170 0.928381
vt -0.212065 0.196351
vt -0.232026 0.172307
vt 0.232026 -0.172307
vt 0.212065 -0.196351
vt -0.196351 0.212065
vt 0.172307 -0.232026
vt -0.172307 0.232026
vt 0.196351 -0.212065
vt 0.721197 0.000000
vt 0.000000 0.031300
vt 0.721197 0.031300
vt 0.031250 0.031300
vt 0.445234 0.000000
vt 0.445234 0.031300
vt 1.006071 0.000000
vt 1.006071 0.031300
vt 0.503036 -0.142193
vt -0.171516 0.112964
vt -0.503036 -0.142193
vt -0.160460 0.142193
vt -0.142193 0.503036
vt -0.142193 -0.503036
vt 0.112964 -0.171516
vt 0.142193 -0.160460
vt 0.000000 0.030000
vt 0.445234 0.030000
vt 0.031250 0.030000
vt 0.721197 0.030000
vt 1.006071 0.030000
vt 0.171516 0.112964
vt 0.160460 0.142193
vt 0.142193 0.503036
vt -0.112964 -0.171516
vt 0.142193 -0.503036
vt -0.142193 -0.160460
s 1
usemtl Acier_-_Satiné
f 1/1/1 2/2/1 4/3/1
f 4/3/1 2/2/1 3/4/1
f 5/1/2 1/5/2 6/3/2
f 6/3/2 1/5/2 4/6/2
f 7/1/3 5/2/3 8/3/3
f 8/3/3 5/2/3 6/4/3
f 2/1/4 7/5/4 3/3/4
f 3/3/4 7/5/4 8/6/4
f 2/7/5 1/8/5 7/9/5
f 7/9/5 1/8/5 5/10/5
f 3/11/6 8/12/6 4/13/6
f 4/13/6 8/12/6 6/14/6
f 9/1/7 10/15/7 12/3/7
f 12/3/7 10/15/7 11/16/7
f 13/1/8 9/5/8 14/3/8
f 14/3/8 9/5/8 12/6/8
f 15/1/9 13/15/9 16/3/9
f 16/3/9 13/15/9 14/16/9
f 10/1/10 15/5/10 11/3/10
f 11/3/10 15/5/10 16/6/10
f 15/17/5 10/18/5 13/19/5
f 13/19/5 10/18/5 9/20/5
f 16/21/6 14/22/6 11/23/6
f 11/23/6 14/22/6 12/24/6
f 17/1/3 18/25/3 20/26/3
f 20/26/3 18/25/3 19/27/3
f 21/1/4 17/5/4 22/26/4
f 22/26/4 17/5/4 20/28/4
f 23/1/9 21/29/9 24/26/9
f 24/26/9 21/29/9 22/30/9
f 18/1/11 23/31/11 19/26/11
f 19/26/11 23/31/11 24/32/11
f 18/33/6 17/34/6 23/35/6
f 23/35/6 17/34/6 21/36/6
f 19/37/5 24/38/5 20/39/5
f 20/39/5 24/38/5 22/40/5
f 25/1/9 26/29/9 28/41/9
f 28/41/9 26/29/9 27/42/9
f 29/1/4 25/5/4 30/41/4
f 30/41/4 25/5/4 28/43/4
f 31/1/3 29/25/3 32/41/3
f 32/41/3 29/25/3 30/44/3
f 26/1/11 31/31/11 27/41/11
f 27/41/11 31/31/11 32/45/11
f 31/35/5 26/33/5 29/46/5
f 29/46/5 26/33/5 25/47/5
f 32/48/6 30/49/6 27/50/6
f 27/50/6 30/49/6 28/51/6
