# Blender 5.1.1
# www.blender.org
mtllib linteau.mtl
o linteau
v 3.328959 7.519617 4.768828
v 3.328959 7.207117 4.768828
v 3.328959 7.207117 4.456328
v 3.328959 7.519617 4.456328
v -0.967657 7.519617 4.768828
v -0.967657 7.519617 4.456328
v -0.967657 7.207117 4.768828
v -0.967657 7.207117 4.456328
v 4.393728 9.083703 4.456328
v 4.393728 9.083703 4.768828
v 4.393728 8.771203 4.768828
v 4.393728 8.771203 4.456328
v -5.354485 9.083703 4.456328
v -5.354485 8.771203 4.456328
v -5.354485 9.083703 4.768828
v -5.354485 8.771203 4.768828
vn 1.0000 -0.0000 -0.0000
vn -0.0000 1.0000 -0.0000
vn -1.0000 -0.0000 -0.0000
vn -0.0000 -1.0000 -0.0000
vn -0.0000 -0.0000 1.0000
vn -0.0000 -0.0000 -1.0000
vt 0.000000 0.000000
vt 0.031250 0.000000
vt 0.000000 0.031250
vt 0.031250 0.031250
vt 0.429662 0.000000
vt 0.429662 0.031250
vt -0.214831 -0.015625
vt 0.214831 -0.015625
vt -0.214831 0.015625
vt 0.214831 0.015625
vt -0.015625 -0.214831
vt 0.015625 -0.214831
vt -0.015625 0.214831
vt 0.015625 0.214831
vt 0.974821 0.000000
vt 0.974821 0.031250
vt -0.487411 -0.015625
vt 0.487411 -0.015625
vt -0.487411 0.015625
vt 0.487411 0.015625
s 1
usemtl Acier_-_Satiné.002
f 1/1/1 2/2/1 4/3/1
f 4/3/1 2/2/1 3/4/1
f 5/1/2 1/5/2 6/3/2
f 6/3/2 1/5/2 4/6/2
f 7/1/3 5/2/3 8/3/3
f 8/3/3 5/2/3 6/4/3
f 2/1/4 7/5/4 3/3/4
f 3/3/4 7/5/4 8/6/4
f 7/7/5 2/8/5 5/9/5
f 5/9/5 2/8/5 1/10/5
f 8/11/6 6/12/6 3/13/6
f 3/13/6 6/12/6 4/14/6
f 9/1/1 10/2/1 12/3/1
f 12/3/1 10/2/1 11/4/1
f 13/1/6 9/15/6 14/3/6
f 14/3/6 9/15/6 12/16/6
f 15/1/3 13/2/3 16/3/3
f 16/3/3 13/2/3 14/4/3
f 10/1/5 15/15/5 11/3/5
f 11/3/5 15/15/5 16/16/5
f 15/17/2 10/18/2 13/19/2
f 13/19/2 10/18/2 9/20/2
f 11/17/4 16/18/4 12/19/4
f 12/19/4 16/18/4 14/20/4
